<svg width="51" height="51" viewBox="0 0 51 51" fill="none" xmlns="http://www.w3.org/2000/svg">
<path fill-rule="evenodd" clip-rule="evenodd" d="M12.75 4.25C8.05558 4.25 4.25 8.05558 4.25 12.75V38.25C4.25 42.9443 8.05558 46.75 12.75 46.75H38.25C42.9443 46.75 46.75 42.9443 46.75 38.25V12.75C46.75 8.05558 42.9443 4.25 38.25 4.25H12.75ZM8.5 12.75C8.5 10.4028 10.4028 8.5 12.75 8.5H38.25C40.5973 8.5 42.5 10.4028 42.5 12.75V38.25C42.5 40.5973 40.5973 42.5 38.25 42.5H12.75C10.4028 42.5 8.5 40.5973 8.5 38.25V12.75ZM19.125 23.375C19.125 22.2014 18.1736 21.25 17 21.25C15.8264 21.25 14.875 22.2014 14.875 23.375V36.125C14.875 37.2986 15.8264 38.25 17 38.25C18.1736 38.25 19.125 37.2986 19.125 36.125V23.375ZM20.1875 15.9375C20.1875 17.6979 18.7604 19.125 17 19.125C15.2396 19.125 13.8125 17.6979 13.8125 15.9375C13.8125 14.1771 15.2396 12.75 17 12.75C18.7604 12.75 20.1875 14.1771 20.1875 15.9375ZM25.5 21.25C26.2214 21.25 26.8589 21.6095 27.2431 22.1593C28.3324 21.5692 29.5451 21.25 30.8125 21.25C35.4012 21.25 38.25 25.3423 38.25 28.8392V28.8554V28.8713V28.8875V28.9036V28.9198V28.9361V28.9523V28.9686V28.985V29.0014V29.0179V29.0343V29.0509V29.0674V29.084V29.1006V29.1172V29.134V29.1507V29.1673V29.1843V29.2011V29.2179V29.2349V29.2517V29.2687V29.2857V29.3029V29.3199V29.3371V29.3541V29.3713V29.3885V29.4057V29.4232V29.4404V29.4578V29.475V29.4924V29.5099V29.5275V29.5449V29.5624V29.58V29.5976V29.6151V29.6327V29.6505V29.6682V29.6858V29.7037V29.7215V29.7392V29.757V29.7749V29.7927V29.8108V29.8286V29.8467V29.8645V29.8826V29.9007V29.9187V29.9368V29.9548V29.9729V29.9912V30.0092V30.0275V30.0458V30.0641V30.0821V30.1006V30.1189V30.1372V30.1554V30.1739V30.1922V30.2107V30.229V30.2475V30.2659V30.2844V30.3029V30.3214V30.3399V30.3586V30.3771V30.3958V30.4143V30.433V30.4515V30.4702V30.4889V30.5076V30.5263V30.545V30.5637V30.5824V30.6011V30.6198V30.6387V30.6574V30.6763V30.695V30.7139V30.7326V30.7515V30.7704V30.7893V30.808V30.8269V30.8459V30.8648V30.8837V30.9026V30.9215V30.9404V30.9595V30.9785V30.9974V31.0163V31.0354V31.0543V31.0732V31.0924V31.1113V31.1304V31.1493V31.1682V31.1873V31.2065V31.2254V31.2445V31.2634V31.2825V31.3017V31.3206V31.3397V31.3586V31.3777V31.3969V31.4158V31.4349V31.454V31.4729V31.4921V31.5112V31.5303V31.5492V31.5684V31.5875V31.6064V31.6255V31.6446V31.6636V31.6827V31.7016V31.7207V31.7396V31.7588V31.7779V31.7968V31.8159V31.8348V31.8537V31.8729V31.8918V31.9109V31.9298V31.9487V31.9676V31.9868V32.0057V32.0246V32.0435V32.0624V32.0813V32.1002V32.1192V32.1381V32.157V32.1759V32.1946V32.2135V32.2324V32.2511V32.27V32.2887V32.3076V32.3263V32.3453V32.364V32.3827V32.4014V32.4201V32.4388V32.4575V32.4762V32.4949V32.5136V32.532V32.5507V32.5692V32.5879V32.6064V32.6249V32.6434V32.6619V32.6804V32.6989V32.7173V32.7358V32.7543V32.7726V32.7911V32.8094V32.8276V32.8461V32.8644V32.8827V32.9007V32.919V32.9373V32.9556V32.9736V32.9917V33.01V33.028V33.0461V33.0641V33.0822V33.1001V33.1181V33.136V33.154V33.1719V33.1897V33.2076V33.2254V33.2433V33.2609V33.2788V33.2964V33.314V33.3317V33.3493V33.367V33.3846V33.402V33.4197V33.4371V33.4545V33.4719V33.4894V33.5068V33.524V33.5414V33.5586V33.5758V33.5931V33.6103V33.6273V33.6445V33.6615V33.6785V33.6955V33.7125V33.7295V33.7463V33.7631V33.7801V33.7968V33.8134V33.8302V33.847V33.8636V33.8801V33.8967V33.9133V33.9297V33.9462V33.9626V33.979V33.9953V34.0117V34.0278V34.0442V34.0603V34.0765V34.0924V34.1086V34.1245V34.1405V34.1564V34.1723V34.1883V34.204V34.2197V34.2354V34.2512V34.2667V34.2824V34.2979V34.3134V34.3287V34.3442V34.3595V34.3748V34.3901V34.4054V34.4205V34.4356V34.4507V34.4658V34.4807V34.4955V34.5104V34.5253V34.5402V34.5548V34.5695V34.5842V34.5988V34.6133V34.6277V34.6422V34.6566V34.6709V34.6851V34.6993V34.7136V34.7278V34.7418V34.7559V34.7697V34.7837V34.7975V34.8113V34.8249V34.8387V34.8523V34.8659V34.8793V34.8929V34.9063V34.9197V34.9329V34.946V34.9592V34.9724V34.9856V34.9985V35.0115V35.0242V35.0372V35.05V35.0625V35.0752V35.0878V35.1003V35.1129V35.1252V35.1375V35.1498V35.1619V35.1741V35.1862V35.1983V35.2102V35.2221V35.234V35.2457V35.2574V35.269V35.2805V35.2922V35.3035V35.3149V35.3262V35.3375V35.3487V35.3598V35.3708V35.3819V35.3927V35.4036V35.4144V35.425V35.4356V35.4463V35.4567V35.4671V35.4775V35.4877V35.4979V35.5081V35.5181V35.5281V35.5381V35.5478V35.5576V35.5674V35.577V35.5865V35.5961V35.6054V35.6148V35.6241V35.6333V35.6424V35.6513V35.6603V35.6692V35.6781V35.6868V35.6953V35.704V35.7125V35.7208V35.7293V35.7376V35.7457V35.7538V35.7618V35.7697V35.7776V35.7854V35.7931V35.8007V35.8084V35.8158V35.8232V35.8305V35.8377V35.8449V35.8519V35.8589V35.8657V35.8725V35.8793V35.8859V35.8925V35.8989V35.9053V35.9116V35.9178V35.924V35.9301V35.9361V35.9418V35.9476V35.9533V35.959V35.9646V35.9699V35.9752V35.9805V35.9856V35.9907V35.9958V36.0007V36.0056V36.0102V36.0147V36.0194V36.0238V36.0281V36.0323V36.0366V36.0406V36.0447V36.0485V36.0523V36.0561V36.0598V36.0632V36.0666V36.07V36.0731V36.0763V36.0793V36.0823V36.0853V36.088V36.0906V36.0931V36.0957V36.098V36.1003V36.1025V36.1065V36.1101V36.1135V36.1163V36.1188V36.1216V36.1241C38.25 37.2978 37.2986 38.25 36.125 38.25C34.9514 38.25 34 37.2986 34 36.125V36.1224V36.1199V36.1176V36.115V36.1118V36.1084V36.1046V36.1003V36.098V36.0957V36.0931V36.0906V36.088V36.0853V36.0823V36.0793V36.0763V36.0731V36.07V36.0666V36.0632V36.0598V36.0561V36.0523V36.0485V36.0447V36.0406V36.0366V36.0323V36.0281V36.0238V36.0194V36.0147V36.0102V36.0056V36.0007V35.9958V35.9907V35.9856V35.9805V35.9752V35.9699V35.9646V35.959V35.9533V35.9476V35.9418V35.9361V35.9301V35.924V35.9178V35.9116V35.9053V35.8989V35.8925V35.8859V35.8793V35.8725V35.8657V35.8589V35.8519V35.8449V35.8377V35.8305V35.8232V35.8158V35.8084V35.8007V35.7931V35.7854V35.7776V35.7697V35.7618V35.7538V35.7457V35.7376V35.7293V35.7208V35.7125V35.704V35.6953V35.6868V35.6781V35.6692V35.6603V35.6513V35.6424V35.6333V35.6241V35.6148V35.6054V35.5961V35.5865V35.577V35.5674V35.5576V35.5478V35.5381V35.5281V35.5181V35.5081V35.4979V35.4877V35.4775V35.4671V35.4567V35.4463V35.4356V35.425V35.4144V35.4036V35.3927V35.3819V35.3708V35.3598V35.3487V35.3375V35.3262V35.3149V35.3035V35.2922V35.2805V35.269V35.2574V35.2457V35.234V35.2221V35.2102V35.1983V35.1862V35.1741V35.1619V35.1498V35.1375V35.1252V35.1129V35.1003V35.0878V35.0752V35.0625V35.05V35.0372V35.0242V35.0115V34.9985V34.9856V34.9724V34.9592V34.946V34.9329V34.9197V34.9063V34.8929V34.8793V34.8659V34.8523V34.8387V34.8249V34.8113V34.7975V34.7837V34.7697V34.7559V34.7418V34.7278V34.7136V34.6993V34.6851V34.6709V34.6566V34.6422V34.6277V34.6133V34.5988V34.5842V34.5695V34.5548V34.5402V34.5253V34.5104V34.4955V34.4807V34.4658V34.4507V34.4356V34.4205V34.4054V34.3901V34.3748V34.3595V34.3442V34.3287V34.3134V34.2979V34.2824V34.2667V34.2512V34.2354V34.2197V34.204V34.1883V34.1723V34.1564V34.1405V34.1245V34.1086V34.0924V34.0765V34.0603V34.0442V34.0278V34.0117V33.9953V33.979V33.9626V33.9462V33.9297V33.9133V33.8967V33.8801V33.8636V33.847V33.8302V33.8134V33.7968V33.7801V33.7631V33.7463V33.7295V33.7125V33.6955V33.6785V33.6615V33.6445V33.6273V33.6103V33.5931V33.5758V33.5586V33.5414V33.524V33.5068V33.4894V33.4719V33.4545V33.4371V33.4197V33.402V33.3846V33.367V33.3493V33.3317V33.314V33.2964V33.2788V33.2609V33.2433V33.2254V33.2076V33.1897V33.1719V33.154V33.136V33.1181V33.1001V33.0822V33.0641V33.0461V33.028V33.01V32.9917V32.9736V32.9556V32.9373V32.919V32.9007V32.8827V32.8644V32.8461V32.8276V32.8094V32.7911V32.7726V32.7543V32.7358V32.7173V32.6989V32.6804V32.6619V32.6434V32.6249V32.6064V32.5879V32.5692V32.5507V32.532V32.5136V32.4949V32.4762V32.4575V32.4388V32.4201V32.4014V32.3827V32.364V32.3453V32.3263V32.3076V32.2887V32.27V32.2511V32.2324V32.2135V32.1946V32.1759V32.157V32.1381V32.1192V32.1002V32.0813V32.0624V32.0435V32.0246V32.0057V31.9868V31.9676V31.9487V31.9298V31.9109V31.8918V31.8729V31.8537V31.8348V31.8159V31.7968V31.7779V31.7588V31.7396V31.7207V31.7016V31.6827V31.6636V31.6446V31.6255V31.6064V31.5875V31.5684V31.5492V31.5303V31.5112V31.4921V31.4729V31.454V31.4349V31.4158V31.3969V31.3777V31.3586V31.3397V31.3206V31.3017V31.2825V31.2634V31.2445V31.2254V31.2065V31.1873V31.1682V31.1493V31.1304V31.1113V31.0924V31.0732V31.0543V31.0354V31.0163V30.9974V30.9785V30.9595V30.9404V30.9215V30.9026V30.8837V30.8648V30.8459V30.8269V30.808V30.7893V30.7704V30.7515V30.7326V30.7139V30.695V30.6763V30.6574V30.6387V30.6198V30.6011V30.5824V30.5637V30.545V30.5263V30.5076V30.4889V30.4702V30.4515V30.433V30.4143V30.3958V30.3771V30.3586V30.3399V30.3214V30.3029V30.2844V30.2659V30.2475V30.229V30.2107V30.1922V30.1739V30.1554V30.1372V30.1189V30.1006V30.0821V30.0641V30.0458V30.0275V30.0092V29.9912V29.9729V29.9548V29.9368V29.9187V29.9007V29.8826V29.8645V29.8467V29.8286V29.8108V29.7927V29.7749V29.757V29.7392V29.7215V29.7037V29.6858V29.6682V29.6505V29.6327V29.6151V29.5976V29.58V29.5624V29.5449V29.5275V29.5099V29.4924V29.475V29.4578V29.4404V29.4232V29.4057V29.3885V29.3713V29.3541V29.3371V29.3199V29.3029V29.2857V29.2687V29.2517V29.2349V29.2179V29.2011V29.1843V29.1673V29.1507V29.134V29.1172V29.1006V29.084V29.0674V29.0509V29.0343V29.0179V29.0014V28.985V28.9686V28.9523V28.9361V28.9198V28.9036V28.8875V28.8713V28.8554V28.8392C34 27.2068 32.5988 25.5 30.8125 25.5C29.6988 25.5 28.4695 26.1054 27.625 27.5466V27.5523V27.5742V27.5961V27.618V27.6401V27.662V27.6841V27.7062V27.7285V27.7506V27.7727V27.795V27.8173V27.8396V27.8619V27.8842V27.9068V27.9293V27.9516V27.9741V27.9967V28.0192V28.0419V28.0644V28.0872V28.1099V28.1324V28.1554V28.1781V28.2009V28.2236V28.2466V28.2695V28.2922V28.3152V28.3381V28.3611V28.3843V28.4072V28.4304V28.4533V28.4765V28.4996V28.5228V28.546V28.5691V28.5923V28.6157V28.6388V28.6622V28.6854V28.7087V28.7321V28.7555V28.7789V28.8022V28.8256V28.8492V28.8726V28.896V28.9195V28.9431V28.9665V28.9901V29.0137V29.0373V29.0609V29.0844V29.108V29.1316V29.1554V29.179V29.2026V29.2264V29.25V29.2738V29.2976V29.3212V29.345V29.3688V29.3926V29.4162V29.44V29.4638V29.4876V29.5116V29.5354V29.5592V29.583V29.6068V29.6306V29.6546V29.6784V29.7022V29.7262V29.75V29.774V29.7978V29.8218V29.8456V29.8694V29.8934V29.9174V29.9412V29.9653V29.9891V30.0131V30.0369V30.0609V30.0849V30.1087V30.1327V30.1565V30.1805V30.2045V30.2283V30.2523V30.2761V30.3002V30.324V30.348V30.3718V30.3958V30.4196V30.4436V30.4674V30.4914V30.5152V30.5392V30.563V30.5868V30.6106V30.6346V30.6584V30.6822V30.706V30.7298V30.7536V30.7774V30.8012V30.825V30.8488V30.8726V30.8964V30.92V30.9438V30.9676V30.9912V31.015V31.0386V31.0624V31.086V31.1096V31.1332V31.1567V31.1805V31.2041V31.2275V31.2511V31.2747V31.2983V31.3216V31.3452V31.3686V31.3922V31.4156V31.4389V31.4623V31.4857V31.5091V31.5324V31.5558V31.579V31.6024V31.6255V31.6489V31.6721V31.6952V31.7184V31.7415V31.7647V31.7877V31.8108V31.8338V31.8569V31.8799V31.9028V31.9258V31.9487V31.9717V31.9944V32.0174V32.0401V32.0628V32.0856V32.1083V32.1311V32.1538V32.1765V32.1991V32.2216V32.2441V32.2666V32.2892V32.3117V32.3342V32.3565V32.3788V32.4011V32.4235V32.4458V32.4681V32.4902V32.5123V32.5346V32.5567V32.5786V32.6007V32.6228V32.6447V32.6666V32.6884V32.7103V32.732V32.7539V32.7756V32.7972V32.8189V32.8406V32.8621V32.8837V32.9052V32.9267V32.9479V32.9694V32.9906V33.0119V33.0331V33.0544V33.0756V33.0967V33.1177V33.1387V33.1598V33.1806V33.2016V33.2225V33.2433V33.2639V33.2847V33.3053V33.3259V33.3466V33.367V33.3876V33.408V33.4284V33.4486V33.469V33.4891V33.5093V33.5295V33.5495V33.5695V33.5894V33.6094V33.6294V33.6492V33.6689V33.6885V33.7082V33.7278V33.7473V33.7669V33.7862V33.8058V33.8251V33.8442V33.8636V33.8827V33.9018V33.9207V33.9399V33.9588V33.9777V33.9964V34.0151V34.0338V34.0525V34.071V34.0895V34.1079V34.1264V34.1447V34.163V34.1813V34.1993V34.2174V34.2354V34.2535V34.2714V34.2892V34.3068V34.3245V34.3421V34.3598V34.3774V34.3948V34.412V34.4295V34.4467V34.4639V34.4809V34.4979V34.5149V34.5319V34.5487V34.5655V34.582V34.5986V34.6152V34.6318V34.6481V34.6645V34.6806V34.697V34.7131V34.7291V34.745V34.761V34.7769V34.7926V34.8081V34.8239V34.8394V34.8549V34.8702V34.8855V34.9008V34.9159V34.931V34.9458V34.9609V34.9756V34.9905V35.0051V35.0198V35.0342V35.0487V35.0629V35.0774V35.0916V35.1056V35.1197V35.1337V35.1475V35.1613V35.1749V35.1885V35.2021V35.2157V35.2289V35.2423V35.2554V35.2686V35.2816V35.2945V35.3075V35.3203V35.3328V35.3455V35.3581V35.3704V35.3827V35.3951V35.4072V35.4193V35.4312V35.4431V35.455V35.4667V35.4781V35.4898V35.5011V35.5126V35.5238V35.5349V35.5459V35.557V35.5678V35.5787V35.5893V35.5999V35.6103V35.6207V35.6311V35.6413V35.6515V35.6615V35.6713V35.6813V35.6909V35.7006V35.7102V35.7195V35.7289V35.738V35.7472V35.7563V35.7652V35.7739V35.7829V35.7914V35.7999V35.8084V35.8167V35.8249V35.833V35.8411V35.849V35.8568V35.8645V35.8721V35.8796V35.887V35.8942V35.9014V35.9085V35.9155V35.9223V35.9291V35.9357V35.9422V35.9486V35.955V35.9612V35.9673V35.9733V35.979V35.985V35.9905V35.996V36.0015V36.0068V36.0119V36.017V36.0221V36.027V36.0317V36.0364V36.0408V36.0453V36.0496V36.0538V36.0578V36.0619V36.0657V36.0693V36.0729V36.0763V36.0797V36.0831V36.0861V36.0891V36.0921V36.0948V36.0976V36.1001V36.1025V36.1048V36.1069V36.111V36.1144V36.1173V36.1199V36.1227V36.1248C27.625 37.2984 26.6736 38.25 25.5 38.25C24.3264 38.25 23.375 37.2986 23.375 36.125V36.1227V36.1199V36.1173V36.1144V36.111V36.1069V36.1048V36.1025V36.1001V36.0976V36.0948V36.0921V36.0891V36.0861V36.0831V36.0797V36.0763V36.0729V36.0693V36.0657V36.0619V36.0578V36.0538V36.0496V36.0453V36.0408V36.0364V36.0317V36.027V36.0221V36.017V36.0119V36.0068V36.0015V35.996V35.9905V35.985V35.979V35.9733V35.9673V35.9612V35.955V35.9486V35.9422V35.9357V35.9291V35.9223V35.9155V35.9085V35.9014V35.8942V35.887V35.8796V35.8721V35.8645V35.8568V35.849V35.8411V35.833V35.8249V35.8167V35.8084V35.7999V35.7914V35.7829V35.7739V35.7652V35.7563V35.7472V35.738V35.7289V35.7195V35.7102V35.7006V35.6909V35.6813V35.6713V35.6615V35.6515V35.6413V35.6311V35.6207V35.6103V35.5999V35.5893V35.5787V35.5678V35.557V35.5459V35.5349V35.5238V35.5126V35.5011V35.4898V35.4781V35.4667V35.455V35.4431V35.4312V35.4193V35.4072V35.3951V35.3827V35.3704V35.3581V35.3455V35.3328V35.3203V35.3075V35.2945V35.2816V35.2686V35.2554V35.2423V35.2289V35.2157V35.2021V35.1885V35.1749V35.1613V35.1475V35.1337V35.1197V35.1056V35.0916V35.0774V35.0629V35.0487V35.0342V35.0198V35.0051V34.9905V34.9756V34.9609V34.9458V34.931V34.9159V34.9008V34.8855V34.8702V34.8549V34.8394V34.8239V34.8081V34.7926V34.7769V34.761V34.745V34.7291V34.7131V34.697V34.6806V34.6645V34.6481V34.6318V34.6152V34.5986V34.582V34.5655V34.5487V34.5319V34.5149V34.4979V34.4809V34.4639V34.4467V34.4295V34.412V34.3948V34.3774V34.3598V34.3421V34.3245V34.3068V34.2892V34.2714V34.2535V34.2354V34.2174V34.1993V34.1813V34.163V34.1447V34.1264V34.1079V34.0895V34.071V34.0525V34.0338V34.0151V33.9964V33.9777V33.9588V33.9399V33.9207V33.9018V33.8827V33.8636V33.8442V33.8251V33.8058V33.7862V33.7669V33.7473V33.7278V33.7082V33.6885V33.6689V33.6492V33.6294V33.6094V33.5894V33.5695V33.5495V33.5295V33.5093V33.4891V33.469V33.4486V33.4284V33.408V33.3876V33.367V33.3466V33.3259V33.3053V33.2847V33.2639V33.2433V33.2225V33.2016V33.1806V33.1598V33.1387V33.1177V33.0967V33.0756V33.0544V33.0331V33.0119V32.9906V32.9694V32.9479V32.9267V32.9052V32.8837V32.8621V32.8406V32.8189V32.7972V32.7756V32.7539V32.732V32.7103V32.6884V32.6666V32.6447V32.6228V32.6007V32.5786V32.5567V32.5346V32.5123V32.4902V32.4681V32.4458V32.4235V32.4011V32.3788V32.3565V32.3342V32.3117V32.2892V32.2666V32.2441V32.2216V32.1991V32.1765V32.1538V32.1311V32.1083V32.0856V32.0628V32.0401V32.0174V31.9944V31.9717V31.9487V31.9258V31.9028V31.8799V31.8569V31.8338V31.8108V31.7877V31.7647V31.7415V31.7184V31.6952V31.6721V31.6489V31.6255V31.6024V31.579V31.5558V31.5324V31.5091V31.4857V31.4623V31.4389V31.4156V31.3922V31.3686V31.3452V31.3216V31.2983V31.2747V31.2511V31.2275V31.2041V31.1805V31.1567V31.1332V31.1096V31.086V31.0624V31.0386V31.015V30.9912V30.9676V30.9438V30.92V30.8964V30.8726V30.8488V30.825V30.8012V30.7774V30.7536V30.7298V30.706V30.6822V30.6584V30.6346V30.6106V30.5868V30.563V30.5392V30.5152V30.4914V30.4674V30.4436V30.4196V30.3958V30.3718V30.348V30.324V30.3002V30.2761V30.2523V30.2283V30.2045V30.1805V30.1565V30.1327V30.1087V30.0849V30.0609V30.0369V30.0131V29.9891V29.9653V29.9412V29.9174V29.8934V29.8694V29.8456V29.8218V29.7978V29.774V29.75V29.7262V29.7022V29.6784V29.6546V29.6306V29.6068V29.583V29.5592V29.5354V29.5116V29.4876V29.4638V29.44V29.4162V29.3926V29.3688V29.345V29.3212V29.2976V29.2738V29.25V29.2264V29.2026V29.179V29.1554V29.1316V29.108V29.0844V29.0609V29.0373V29.0137V28.9901V28.9665V28.9431V28.9195V28.896V28.8726V28.8492V28.8256V28.8022V28.7789V28.7555V28.7321V28.7087V28.6854V28.6622V28.6388V28.6157V28.5923V28.5691V28.546V28.5228V28.4996V28.4765V28.4533V28.4304V28.4072V28.3843V28.3611V28.3381V28.3152V28.2922V28.2695V28.2466V28.2236V28.2009V28.1781V28.1554V28.1324V28.1099V28.0872V28.0644V28.0419V28.0192V27.9967V27.9741V27.9516V27.9293V27.9068V27.8842V27.8619V27.8396V27.8173V27.795V27.7727V27.7506V27.7285V27.7062V27.6841V27.662V27.6401V27.618V27.5961V27.5742V27.5523V27.5304V27.5085V27.4867V27.465V27.4433V27.4216V27.4V27.3785V27.3568V27.3354V27.3139V27.2924V27.2712V27.2497V27.2285V27.2072V27.186V27.1647V27.1437V27.1226V27.1016V27.0806V27.0595V27.0387V27.0179V27.0096V27.0011V26.9928V26.9843V26.976V26.9675V26.959V26.9505V26.942V26.9335V26.925V26.9165V26.908V26.8995V26.8908V26.8823V26.8736V26.8649V26.8564V26.8477V26.839V26.8302V26.8215V26.8128V26.8041V26.7954V26.7867V26.7778V26.769V26.7601V26.7514V26.7425V26.7336V26.7248V26.7159V26.707V26.6981V26.6891V26.6802V26.6713V26.6624V26.6532V26.6443V26.6354V26.6262V26.6173V26.6082V26.5993V26.5901V26.581V26.5721V26.5629V26.5538V26.5446V26.5355V26.5264V26.5172V26.5081V26.499V26.4896V26.4805V26.4713V26.4622V26.4528V26.4437V26.4344V26.4252V26.4159V26.4065V26.3974V26.388V26.3787V26.3695V26.3602V26.3508V26.3415V26.3321V26.3228V26.3134V26.3041V26.2947V26.2854V26.276V26.2665V26.2571V26.2478V26.2384V26.2289V26.2195V26.2102V26.2006V26.1913V26.1817V26.1723V26.1628V26.1534V26.1439V26.1345V26.125V26.1154V26.106V26.0965V26.0869V26.0776V26.068V26.0584V26.0489V26.0395V26.03V26.0204V26.0108V26.0013V25.9917V25.9824V25.9728V25.9632V25.9537V25.9441V25.9346V25.925V25.9154V25.9059V25.8963V25.8867V25.8772V25.8676V25.8581V25.8485V25.8389V25.8294V25.8198V25.8102V25.8007V25.7911V25.7816V25.772V25.7624V25.7529V25.7433V25.7337V25.7242V25.7144V25.7048V25.6953V25.6857V25.6762V25.6666V25.657V25.6475V25.6379V25.6283V25.619V25.6094V25.5999V25.5903V25.5807V25.5712V25.5616V25.5521V25.5425V25.5329V25.5236V25.514V25.5045V25.4949V25.4855V25.476V25.4664V25.4569V25.4475V25.4379V25.4284V25.419V25.4095V25.4001V25.3906V25.3812V25.3716V25.3623V25.3527V25.3434V25.334V25.3245V25.3151V25.3058V25.2962V25.2869V25.2775V25.2682V25.2588V25.2495V25.2401V25.2308V25.2214V25.2121V25.2027V25.1934V25.184V25.1749V25.1655V25.1562V25.1468V25.1377V25.1283V25.1192V25.1098V25.1007V25.0914V25.0822V25.0731V25.0639V25.0546V25.0455V25.0363V25.0272V25.018V25.0089V24.9998V24.9906V24.9817V24.9726V24.9634V24.9545V24.9454V24.9362V24.9273V24.9184V24.9092V24.9003V24.8914V24.8825V24.8735V24.8644V24.8555V24.8468V24.8378V24.8289V24.82V24.8113V24.8024V24.7934V24.7847V24.776V24.7671V24.7584V24.7497V24.7409V24.7322V24.7235V24.7148V24.7061V24.6974V24.6889V24.6802V24.6715V24.663V24.6545V24.6457V24.6372V24.6287V24.6202V24.6117V24.6032V24.5947V24.5862V24.578V24.5695V24.5612V24.5527V24.5444V24.5361V24.5276V24.5193V24.511V24.5029V24.4947V24.4864V24.4781V24.47V24.4617V24.4536V24.4456V24.4375V24.4294V24.4213V24.4133V24.4052V24.3971V24.3893V24.3812V24.3733V24.3655V24.3574V24.3495V24.3417V24.3338V24.3261V24.3183V24.3104V24.3028V24.2949V24.2873V24.2796V24.272V24.2643V24.2567V24.249V24.2416V24.2339V24.2265V24.2188V24.2114V24.204V24.1965V24.1891V24.1819V24.1744V24.1672V24.1598V24.1525V24.1453V24.1381V24.1309V24.1236V24.1164V24.1094V24.1022V24.0952V24.0881V24.0811V24.0741V24.0671V24.0601V24.0533V24.0463V24.0395V24.0327V24.0259V24.0191V24.0123V24.0055V23.9989V23.9921V23.9855V23.9789V23.9723V23.9657V23.9592V23.9528V23.9462V23.9398V23.9334V23.9271V23.9207V23.9143V23.9079V23.9018V23.8954V23.8892V23.8831V23.8769V23.8708V23.8648V23.8586V23.8527V23.8465V23.8406V23.8346V23.8289V23.8229V23.8172V23.8113V23.8055V23.7998V23.794V23.7883V23.7828V23.777V23.7715V23.766V23.7605V23.7549V23.7496V23.7441V23.7388V23.7335V23.7282V23.7229V23.7175V23.7124V23.7071V23.702V23.6969V23.6918V23.6867V23.6818V23.6767V23.6719V23.667V23.6621V23.6574V23.6525V23.6478V23.643V23.6383V23.6336V23.6291V23.6245V23.62V23.6155V23.6111V23.6066V23.6022V23.5979V23.5934V23.5892V23.5849V23.5809V23.5767V23.5726V23.5684V23.5643V23.5605V23.5565V23.5524V23.5486V23.5448V23.541V23.5371V23.5335V23.5297V23.5261V23.5225V23.5189V23.5155V23.5118V23.5084V23.505V23.5016V23.4982V23.4951V23.4919V23.4887V23.4855V23.4823V23.4791V23.4761V23.4732V23.4702V23.4672V23.4645V23.4617V23.4587V23.4562V23.4534V23.4506V23.4481V23.4455V23.443V23.4404V23.4381V23.4358V23.4334V23.4311V23.4288V23.4266V23.4243V23.4222V23.4181V23.4143V23.4105V23.4069V23.4035V23.4003V23.3973V23.3943V23.3918V23.3892V23.386V23.3839V23.3814V23.3792V23.3767C23.375 22.2031 24.3264 21.25 25.5 21.25Z" fill="#5709A7"/>
</svg>
