<svg width="42" height="41" viewBox="0 0 42 41" fill="none" xmlns="http://www.w3.org/2000/svg">
<path d="M22.6602 20.1943C22.1377 20.3647 21.5803 20.4592 21 20.4592C20.4197 20.4592 19.8622 20.3647 19.3397 20.1943C15.5439 20.8028 13.5574 23.5262 13.5574 26.831H21H28.4425C28.4425 23.5262 26.4563 20.8028 22.6602 20.1943Z" fill="#5709A7"/>
<path d="M21 19.2818C23.2501 19.2818 25.0735 17.5009 25.0735 15.3047V14.1766C25.0735 11.9804 23.2501 10.2 21 10.2C18.7499 10.2 16.9265 11.9804 16.9265 14.1766V15.3047C16.9265 17.5009 18.7499 19.2818 21 19.2818Z" fill="#5709A7"/>
<path d="M31.0406 0H10.9578C7.07383 0 3.91284 3.08637 3.91284 6.87863V34.1228C3.91284 37.9151 7.07383 41 10.9578 41H27.8313H28.912L29.6764 40.2552L37.3241 32.7896L38.0871 32.0441V30.9891V6.87863C38.0871 3.08637 34.9261 0 31.0406 0ZM35.4782 30.989H31.5287C29.4876 30.989 27.8312 32.6053 27.8312 34.5984V38.4533H10.9578C8.5079 38.4533 6.52176 36.5137 6.52176 34.1228V6.87863C6.52176 4.48638 8.5079 2.54672 10.9578 2.54672H31.0406C33.4913 2.54672 35.4781 4.48638 35.4781 6.87863V30.989H35.4782Z" fill="#5709A7"/>
</svg>
