<svg width="204" height="153" viewBox="0 0 204 153" fill="none" xmlns="http://www.w3.org/2000/svg">
<g clip-path="url(#clip0_192_127)">
<path opacity="0.1" d="M176.101 118.353H196.574C197.686 117.779 198.449 116.614 198.449 115.27C198.449 113.531 197.171 112.09 195.509 111.843C195.511 111.787 195.514 111.731 195.514 111.672C195.514 109.637 193.831 107.987 191.755 107.987C191.538 107.987 191.327 108.005 191.117 108.041C190.222 106.488 188.476 105.435 186.469 105.435C184.13 105.435 182.147 106.865 181.45 108.849C181.231 108.806 181.004 108.78 180.775 108.78C178.781 108.78 177.164 110.497 177.164 112.613C177.164 112.85 177.184 113.085 177.223 113.309C175.713 113.406 174.52 114.561 174.52 115.974C174.52 117.012 175.162 117.909 176.101 118.353Z" fill="white"/>
<path opacity="0.4" d="M128.436 53.4353C128.436 53.9606 128.27 54.3839 128.066 54.3839H107.092C106.888 54.3839 106.723 53.958 106.723 53.4353C106.723 52.91 106.888 52.4867 107.092 52.4867H128.066C128.27 52.4867 128.436 52.9125 128.436 53.4353Z" fill="white"/>
<path opacity="0.4" d="M170.11 44.8775C170.11 45.4028 169.626 45.8261 169.029 45.8261H107.804C107.207 45.8261 106.723 45.4002 106.723 44.8775C106.723 44.3522 107.207 43.9289 107.804 43.9289H169.029C169.626 43.9289 170.11 44.3547 170.11 44.8775ZM148.693 48.9116C148.693 49.4369 148.372 49.8602 147.976 49.8602H107.437C107.041 49.8602 106.72 49.4343 106.72 48.9116C106.72 48.3863 107.041 47.963 107.437 47.963H147.976C148.372 47.963 148.693 48.3863 148.693 48.9116Z" fill="white"/>
<path fill-rule="evenodd" clip-rule="evenodd" d="M76.6836 148.53V148.311H90.7265L76.6836 148.53ZM72.3002 148.53L60.2183 148.311H72.3002V148.53Z" fill="white"/>
<path d="M163.998 129.428C163.998 129.428 163.447 125.942 163.501 125.192C163.555 124.443 163.761 120.482 163.761 120.482L164.294 120.008C164.294 120.008 163.769 124.42 163.835 125.723C163.899 127.023 163.998 129.428 163.998 129.428Z" fill="url(#paint0_linear_192_127)"/>
<path fill-rule="evenodd" clip-rule="evenodd" d="M141.443 94.8065H144.396V153.008H141.443V94.8065Z" fill="#1289CC"/>
<path fill-rule="evenodd" clip-rule="evenodd" d="M139.992 94.8065H142.945V153.008H139.992V94.8065Z" fill="black"/>
<path fill-rule="evenodd" clip-rule="evenodd" d="M150.973 94.8065H153.913V153.008H150.973V94.8065Z" fill="#1289CC"/>
<path fill-rule="evenodd" clip-rule="evenodd" d="M149.522 94.8065H152.462V153.008H149.522V94.8065Z" fill="black"/>
<path fill-rule="evenodd" clip-rule="evenodd" d="M78.9302 94.8065H81.8831V153.008H78.9302V94.8065Z" fill="#125CAE"/>
<path fill-rule="evenodd" clip-rule="evenodd" d="M77.4817 94.8065H80.4346V153.008H77.4817V94.8065Z" fill="black"/>
<path fill-rule="evenodd" clip-rule="evenodd" d="M88.4595 94.8065H91.3996V153.008H88.4595V94.8065Z" fill="#1289CC"/>
<path fill-rule="evenodd" clip-rule="evenodd" d="M87.011 94.8065H89.9511V153.008H87.011V94.8065Z" fill="black"/>
<path fill-rule="evenodd" clip-rule="evenodd" d="M66.6799 92.3916H159.615V98.1571H66.6799V92.3916Z" fill="black"/>
<path fill-rule="evenodd" clip-rule="evenodd" d="M108.179 71.6474L136.779 69.6329L137.236 70.635L133.485 91.0988H132.167L103.897 92.8328L108.179 71.6474Z" fill="url(#paint1_linear_192_127)"/>
<path fill-rule="evenodd" clip-rule="evenodd" d="M107.179 69.6329H136.677L132.396 90.831H102.895L107.179 69.6329Z" fill="black"/>
<path fill-rule="evenodd" clip-rule="evenodd" d="M124.386 90.7927H132.483V92.389H124.386V90.7927Z" fill="url(#paint2_linear_192_127)"/>
<path fill-rule="evenodd" clip-rule="evenodd" d="M97.1167 90.7927H124.386V92.389H97.1167V90.7927Z" fill="#431CA3"/>
<path fill-rule="evenodd" clip-rule="evenodd" d="M108.179 70.8619L104.389 89.5891H131.381L135.17 70.8619H108.179Z" fill="#3F2759"/>
<path fill-rule="evenodd" clip-rule="evenodd" d="M113.146 92.3916C114.059 92.5038 115.984 92.2131 117.353 91.3283C118.71 90.4409 119.786 89.5994 119.786 89.5994C119.786 89.5994 122.742 89.9844 122.93 89.3087C123.012 88.406 119.1 87.3375 118.557 87.2738C117.999 87.21 113.414 87.8552 112.945 88.3244C112.475 88.791 113.146 92.3916 113.146 92.3916ZM97.8638 89.8187C98.7767 89.9334 100.702 89.6427 102.059 88.7553C103.415 87.8679 104.708 86.5751 104.708 86.5751C104.708 86.5751 107.661 86.853 107.597 86.5751C107.521 86.3099 103.821 84.762 103.262 84.7008C102.716 84.6371 98.1188 85.2848 97.6496 85.754C97.1804 86.2181 97.8638 89.8187 97.8638 89.8187Z" fill="white"/>
<path fill-rule="evenodd" clip-rule="evenodd" d="M103.224 86.2461C103.515 86.6133 105.366 87.9954 105.012 88.5258C104.657 89.0715 103.808 89.2984 102.882 88.6278C101.957 87.9571 101.375 87.1692 101.628 86.904C101.883 86.6388 103.224 86.2461 103.224 86.2461Z" fill="white"/>
<path fill-rule="evenodd" clip-rule="evenodd" d="M63.8291 67.9856C61.0165 69.1254 61.6871 74.5493 62.9672 78.4406C64.2346 82.3319 77.3747 91.517 81.266 92.5319C85.1573 93.534 100.248 88.8191 100.248 88.8191C101.273 86.7281 100.388 84.5096 98.5244 84.9915C98.5244 84.9915 83.8135 87.2967 81.6077 84.7518C79.8329 82.7093 66.8075 66.782 63.8291 67.9856Z" fill="url(#paint3_linear_192_127)"/>
<path fill-rule="evenodd" clip-rule="evenodd" d="M75.7401 60.9399C71.1399 70.2015 61.6871 67.1109 59.4584 58.2547C57.2271 49.4088 56.6457 41.769 64.4003 40.4251C72.8255 38.9665 80.3531 51.6757 75.7401 60.9399Z" fill="url(#paint4_linear_192_127)"/>
<path fill-rule="evenodd" clip-rule="evenodd" d="M61.3455 61.1439C62.2201 63.8928 61.9524 71.2674 61.9524 71.2674C61.9524 71.2674 74.3964 74.8909 74.0164 73.2181C72.4966 66.4377 71.724 60.5089 70.3291 59.2671C69.1765 58.2522 66.3384 61.6615 61.3455 61.1439Z" fill="white"/>
<path fill-rule="evenodd" clip-rule="evenodd" d="M86.7001 144.623C86.7001 144.623 89.3725 147.854 92.8329 149.3C96.2932 150.746 97.8513 151.365 97.2928 152.253C96.7344 153.14 92.2999 152.722 88.9543 152.837C85.6215 152.952 83.3673 153.204 83.2525 152.141C83.1378 151.09 83.6707 145.248 83.6707 145.248L86.7001 144.623Z" fill="black"/>
<path fill-rule="evenodd" clip-rule="evenodd" d="M81.8347 119.483C81.9622 123.106 83.1913 150.282 83.1913 150.282C84.0507 151.274 89.7321 149.236 90.1299 147.857C90.1299 147.857 92.5677 117.606 91.6165 117.466C90.6807 117.341 81.8347 119.483 81.8347 119.483Z" fill="url(#paint5_linear_192_127)"/>
<path fill-rule="evenodd" clip-rule="evenodd" d="M115.897 144.751C115.897 144.751 118.572 147.982 122.017 149.44C125.478 150.886 127.036 151.493 126.477 152.393C125.919 153.28 121.484 152.85 118.152 152.964C114.806 153.079 112.552 153.331 112.437 152.281C112.322 151.218 112.855 145.375 112.855 145.375L115.897 144.751Z" fill="black"/>
<path fill-rule="evenodd" clip-rule="evenodd" d="M63.398 108.546C62.9926 111.371 58.6958 115.796 63.931 120.217C69.1636 124.639 102.859 120.901 103.29 121.497C103.721 122.081 112.06 150.751 112.06 150.751C112.06 150.751 119.274 150.524 118.896 147.571C116.112 139.88 116.571 115.326 110.933 112.639C105.302 109.953 63.398 108.546 63.398 108.546Z" fill="url(#paint6_linear_192_127)"/>
<path fill-rule="evenodd" clip-rule="evenodd" d="M77.2089 68.72C72.3817 67.4399 57.9538 66.4071 56.0209 70.533C51.5329 80.1134 55.1055 116.925 61.353 117.532C65.3692 117.925 85.3051 117.315 85.9758 110.081C86.853 100.564 78.0453 86.802 77.2089 68.72Z" fill="url(#paint7_linear_192_127)"/>
<path fill-rule="evenodd" clip-rule="evenodd" d="M55.636 98.7589H60.5269V123.037H55.636V98.7589Z" fill="white"/>
<path fill-rule="evenodd" clip-rule="evenodd" d="M54.5955 98.5626H59.4864V122.841H54.5955V98.5626Z" fill="black"/>
<path fill-rule="evenodd" clip-rule="evenodd" d="M77.2088 68.72C74.3961 69.8598 75.054 75.2964 76.3341 79.1877C77.6142 83.0663 90.7544 92.2514 94.6457 93.2663C98.537 94.2684 114.097 92.3049 114.097 92.3049C115.112 90.2139 114.237 87.9954 112.361 88.4774C112.361 88.4774 97.1804 88.0337 94.9746 85.4862C93.2151 83.4437 80.1744 67.5164 77.2088 68.72Z" fill="url(#paint8_linear_192_127)"/>
<path fill-rule="evenodd" clip-rule="evenodd" d="M72.3179 49.2558C71.4178 48.1159 73.876 52.8793 73.1288 54.8811C73.1416 52.7391 67.9472 50.1534 69.949 55.9699C70.1912 56.6788 70.4921 59.7108 70.4921 59.7108C70.4411 60.9603 64.0508 64.7343 61.942 63.2808C60.0295 62.1664 57.0001 57.681 55.0621 52.6498C53.1113 47.6187 56.5309 45.1605 56.5309 45.1605C56.5309 45.1605 56.0617 43.8804 57.607 41.4732C58.8106 39.5734 76.7549 35.8096 75.791 44.0946C75.587 45.8082 73.7893 47.2923 72.3179 49.2558Z" fill="black"/>
<path fill-rule="evenodd" clip-rule="evenodd" d="M51.2244 78.9735H69.8368C71.1832 78.9735 72.295 80.4678 72.295 82.2936V96.1809C72.295 98.0067 71.1832 99.501 69.8368 99.501H51.2244C49.8678 99.501 48.7585 98.0067 48.7585 96.1809V82.2936C48.7585 80.4678 49.8678 78.9735 51.2244 78.9735Z" fill="white"/>
<path fill-rule="evenodd" clip-rule="evenodd" d="M49.396 79.0143H68.0085C69.3549 79.0143 70.4667 80.5086 70.4667 82.3344V96.2217C70.4667 98.0475 69.3549 99.5418 68.0085 99.5418H49.396C48.0394 99.5418 46.9302 98.0475 46.9302 96.2217V82.3344C46.9276 80.5086 48.0394 79.0143 49.396 79.0143ZM72.3001 124.096H76.6836V148.843H72.3001V124.096Z" fill="black"/>
<path fill-rule="evenodd" clip-rule="evenodd" d="M58.854 148.311H90.6984V150.047H58.854V148.311Z" fill="black"/>
<path fill-rule="evenodd" clip-rule="evenodd" d="M90.0278 152.809C91.3206 152.809 92.3585 151.768 92.3585 150.491C92.3585 149.198 91.3206 148.16 90.0278 148.16C88.7477 148.16 87.7098 149.198 87.7098 150.491C87.7073 151.771 88.7477 152.809 90.0278 152.809ZM74.2101 152.758C75.503 152.758 76.5408 151.717 76.5408 150.44C76.5408 149.147 75.5004 148.109 74.2101 148.109C72.93 148.109 71.8922 149.147 71.8922 150.44C71.8896 151.717 72.93 152.758 74.2101 152.758ZM58.956 152.809C60.2361 152.809 61.2867 151.768 61.2867 150.491C61.2867 149.198 60.2361 148.16 58.956 148.16C57.6759 148.16 56.6253 149.198 56.6253 150.491C56.6253 151.771 57.6759 152.809 58.956 152.809ZM53.9325 120.217H95.0385C96.5966 120.217 97.8639 121.485 97.8639 123.03C97.8639 124.588 96.5966 125.855 95.0385 125.855H53.9325C52.3872 125.855 51.1199 124.588 51.1199 123.03C51.1199 121.485 52.3872 120.217 53.9325 120.217Z" fill="black"/>
<path fill-rule="evenodd" clip-rule="evenodd" d="M60.9424 68.0059C61.0061 67.195 61.5799 64.9128 61.5799 64.9128C61.5799 64.9128 70.9052 64.2778 73.1237 65.3182C73.4705 65.4814 75.6253 68.6562 75.6253 68.6562C69.745 67.5903 64.7138 67.5393 60.9424 68.0059Z" fill="#BCD8FA"/>
<path fill-rule="evenodd" clip-rule="evenodd" d="M108.179 70.8619H135.17L134.999 71.7009L108 71.7519L108.179 70.8619ZM131.243 73.7791C131.243 73.9066 131.141 74.0086 131.014 74.0086H109.673C109.545 74.0086 109.443 73.9066 109.443 73.7791C109.443 73.6516 109.545 73.5496 109.673 73.5496H131.014C131.141 73.5496 131.243 73.6516 131.243 73.7791ZM127.051 75.0822C127.051 75.2097 126.967 75.3117 126.862 75.3117H109.367C109.262 75.3117 109.178 75.2097 109.178 75.0822C109.178 74.9547 109.262 74.8527 109.367 74.8527H126.862C126.967 74.8527 127.051 74.9572 127.051 75.0822ZM126.791 76.6938C126.791 76.8213 126.707 76.9233 126.602 76.9233H109.107C109.002 76.9233 108.918 76.8213 108.918 76.6938C108.918 76.5663 109.002 76.4643 109.107 76.4643H126.602C126.707 76.4643 126.791 76.5663 126.791 76.6938ZM130.374 78.1039C130.374 78.2314 130.272 78.3334 130.144 78.3334H108.78C108.653 78.3334 108.551 78.2314 108.551 78.1039C108.551 77.9764 108.653 77.8744 108.78 77.8744H130.144C130.272 77.8744 130.374 77.979 130.374 78.1039ZM129.583 81.4623C129.583 81.5898 129.481 81.6918 129.354 81.6918H107.99C107.862 81.6918 107.76 81.5898 107.76 81.4623C107.76 81.3348 107.862 81.2328 107.99 81.2328H129.354C129.479 81.2328 129.583 81.3348 129.583 81.4623ZM121.849 79.6977C121.849 79.8252 121.785 79.9272 121.706 79.9272H108.408C108.329 79.9272 108.265 79.8252 108.265 79.6977C108.265 79.5702 108.329 79.4682 108.408 79.4682H121.706C121.785 79.4682 121.849 79.5702 121.849 79.6977ZM117.404 82.926C117.404 83.0535 117.359 83.1555 117.302 83.1555H107.702C107.646 83.1555 107.6 83.0535 107.6 82.926C107.6 82.7985 107.646 82.6965 107.702 82.6965H117.3C117.359 82.6965 117.404 82.7985 117.404 82.926ZM124.733 84.6957C124.733 84.8232 124.652 84.9252 124.55 84.9252H107.363C107.261 84.9252 107.179 84.8232 107.179 84.6957C107.179 84.5682 107.263 84.4662 107.363 84.4662H124.55C124.649 84.4662 124.733 84.5682 124.733 84.6957Z" fill="#1E8191"/>
<path d="M99.1797 27.6497C99.1797 27.8358 99.0292 27.9863 98.8431 27.9863C98.6569 27.9863 98.5065 27.8358 98.5065 27.6497C98.5065 27.4635 98.6569 27.3131 98.8431 27.3131C99.0292 27.3131 99.1797 27.4635 99.1797 27.6497ZM123.328 48.5214C123.328 48.7076 123.178 48.858 122.992 48.858C122.805 48.858 122.652 48.7076 122.652 48.5214C122.652 48.3353 122.803 48.1848 122.992 48.1848C123.18 48.1848 123.328 48.3327 123.328 48.5214ZM88.0464 30.3629C88.0464 30.549 87.8959 30.6995 87.7098 30.6995C87.5236 30.6995 87.3732 30.549 87.3732 30.3629C87.3732 30.1767 87.5236 30.0237 87.7098 30.0237C87.8959 30.0263 88.0464 30.1767 88.0464 30.3629ZM60.8634 30.0263C60.8634 30.2124 60.7129 30.3629 60.5268 30.3629C60.3406 30.3629 60.1902 30.2124 60.1902 30.0263C60.1902 29.8401 60.3406 29.6897 60.5268 29.6897C60.7129 29.6871 60.8634 29.8401 60.8634 30.0263ZM156.58 70.1913C156.58 70.3775 156.43 70.5279 156.244 70.5279C156.057 70.5279 155.904 70.3775 155.904 70.1913C155.904 70.0052 156.055 69.8547 156.244 69.8547C156.432 69.8547 156.58 70.0052 156.58 70.1913ZM157.689 47.6876L158.049 48.4169L158.852 48.5316L158.271 49.1003L158.409 49.901L157.689 49.5236L156.97 49.901L157.105 49.1003L156.524 48.5316L157.33 48.4169L157.689 47.6876ZM74.3835 18.0999L74.8323 19.0103L75.837 19.1556L75.1102 19.8645L75.2811 20.8667L74.3835 20.3924L73.4833 20.8667L73.6542 19.8645L72.9274 19.1556L73.9321 19.0103L74.3835 18.0999ZM175.096 62.679L175.547 63.5894L176.552 63.7347L175.825 64.4436L175.996 65.4458L175.096 64.9715L174.198 65.4458L174.369 64.4436L173.642 63.7347L174.647 63.5894L175.096 62.679Z" fill="white"/>
<path d="M42.478 61.1643C43.1356 61.1643 43.6688 60.6311 43.6688 59.9734C43.6688 59.3158 43.1356 58.7826 42.478 58.7826C41.8203 58.7826 41.2871 59.3158 41.2871 59.9734C41.2871 60.6311 41.8203 61.1643 42.478 61.1643Z" fill="white"/>
<path d="M132.84 34.6851C137.455 39.321 144.952 39.3414 149.591 34.7284C154.227 30.1155 154.247 22.6159 149.634 17.98C145.021 13.3441 137.521 13.3237 132.886 17.9367C128.247 22.5496 128.227 30.0492 132.84 34.6851Z" fill="white"/>
<path d="M21.2722 90.2853L104.389 89.5891L106.231 89.658L131.381 89.5891L135.171 70.8619L34.0401 18.7476" fill="url(#paint9_linear_192_127)"/>
<path opacity="0.2" d="M127.406 29.5672C126.454 29.5672 125.564 29.8273 124.805 30.2812C124.624 27.6292 122.415 25.5357 119.72 25.5357C119.062 25.5357 118.435 25.6606 117.858 25.8876C117.124 23.4294 114.847 21.6367 112.149 21.6367C108.859 21.6367 106.19 24.304 106.19 27.5961C106.19 27.6802 106.192 27.7644 106.197 27.846H106.19C102.9 27.846 100.23 30.5133 100.23 33.8053C100.23 37.0948 102.898 39.7647 106.19 39.7647C106.396 39.7647 106.598 39.7545 106.799 39.7341H126.85C127.033 39.7545 127.217 39.7647 127.406 39.7647C130.221 39.7647 132.503 37.4824 132.503 34.6672C132.503 31.8495 130.221 29.5672 127.406 29.5672Z" fill="url(#paint10_linear_192_127)"/>
</g>
<defs>
<linearGradient id="paint0_linear_192_127" x1="163.495" y1="124.716" x2="164.292" y2="124.716" gradientUnits="userSpaceOnUse">
<stop offset="0.041" stop-color="#100060"/>
<stop offset="1" stop-color="#090E96"/>
</linearGradient>
<linearGradient id="paint1_linear_192_127" x1="103.897" y1="81.2331" x2="137.235" y2="81.2331" gradientUnits="userSpaceOnUse">
<stop stop-color="#A1BAFF"/>
<stop offset="0.433" stop-color="white"/>
</linearGradient>
<linearGradient id="paint2_linear_192_127" x1="124.387" y1="91.5924" x2="132.483" y2="91.5924" gradientUnits="userSpaceOnUse">
<stop stop-color="#A1BAFF"/>
<stop offset="0.433" stop-color="white"/>
</linearGradient>
<linearGradient id="paint3_linear_192_127" x1="61.8623" y1="80.2947" x2="100.68" y2="80.2947" gradientUnits="userSpaceOnUse">
<stop stop-color="#311341"/>
<stop offset="0.23" stop-color="#3113C2"/>
<stop offset="0.348" stop-color="#2F18C5"/>
<stop offset="0.493" stop-color="#2927CC"/>
<stop offset="0.652" stop-color="#1F40D8"/>
<stop offset="0.822" stop-color="#1263E9"/>
<stop offset="0.998" stop-color="#008FFF"/>
<stop offset="1" stop-color="#0090FF"/>
</linearGradient>
<linearGradient id="paint4_linear_192_127" x1="66.3495" y1="50.0208" x2="73.2297" y2="68.288" gradientUnits="userSpaceOnUse">
<stop stop-color="#A1BAFF"/>
<stop offset="0.433" stop-color="white"/>
</linearGradient>
<linearGradient id="paint5_linear_192_127" x1="86.9115" y1="121.094" x2="88.0978" y2="148.376" gradientUnits="userSpaceOnUse">
<stop offset="0.041" stop-color="#100022"/>
<stop offset="1" stop-color="#090E96"/>
</linearGradient>
<linearGradient id="paint6_linear_192_127" x1="85.2069" y1="113.791" x2="116.84" y2="149.853" gradientUnits="userSpaceOnUse">
<stop offset="0.041" stop-color="#10003B"/>
<stop offset="1" stop-color="#090E96"/>
</linearGradient>
<linearGradient id="paint7_linear_192_127" x1="54.0126" y1="92.6058" x2="86.0395" y2="92.6058" gradientUnits="userSpaceOnUse">
<stop stop-color="#7633FF"/>
<stop offset="0.159" stop-color="#7137FF"/>
<stop offset="0.353" stop-color="#6243FF"/>
<stop offset="0.568" stop-color="#4957FF"/>
<stop offset="0.794" stop-color="#2672FF"/>
<stop offset="1" stop-color="#0090FF"/>
</linearGradient>
<linearGradient id="paint8_linear_192_127" x1="76.4935" y1="77.5335" x2="113.551" y2="90.5809" gradientUnits="userSpaceOnUse">
<stop stop-color="#7633FF"/>
<stop offset="0.097" stop-color="#7137FF"/>
<stop offset="0.216" stop-color="#6243FF"/>
<stop offset="0.346" stop-color="#4957FF"/>
<stop offset="0.484" stop-color="#2672FF"/>
<stop offset="0.61" stop-color="#0090FF"/>
</linearGradient>
<linearGradient id="paint9_linear_192_127" x1="28.76" y1="54.7319" x2="159.964" y2="80.2355" gradientUnits="userSpaceOnUse">
<stop offset="0.004" stop-color="#7633FF" stop-opacity="0"/>
<stop offset="0.092" stop-color="#7051FF" stop-opacity="0.088"/>
<stop offset="0.263" stop-color="#6685FF" stop-opacity="0.26"/>
<stop offset="0.43" stop-color="#5EB1FF" stop-opacity="0.428"/>
<stop offset="0.591" stop-color="#57D3FF" stop-opacity="0.589"/>
<stop offset="0.743" stop-color="#53EBFF" stop-opacity="0.742"/>
<stop offset="0.883" stop-color="#50FAFF" stop-opacity="0.883"/>
<stop offset="1" stop-color="#4FFFFF"/>
</linearGradient>
<linearGradient id="paint10_linear_192_127" x1="100.231" y1="30.7012" x2="132.504" y2="30.7012" gradientUnits="userSpaceOnUse">
<stop stop-color="#A1BAFF"/>
<stop offset="0.089" stop-color="#ACC2FF"/>
<stop offset="0.499" stop-color="#D9E3FF"/>
<stop offset="0.816" stop-color="#F5F7FF"/>
<stop offset="1" stop-color="white"/>
</linearGradient>
<clipPath id="clip0_192_127">
<rect width="204" height="153" fill="white"/>
</clipPath>
</defs>
</svg>
