<svg width="361" height="46" viewBox="0 0 361 46" fill="none" xmlns="http://www.w3.org/2000/svg">
<path d="M171.455 3.08202C171.046 5.65141 171.046 6.76853 171.455 9.15173C171.716 10.7529 172.163 12.4286 172.424 12.8755C173.131 13.9926 173.094 15.929 172.349 17.6791C171.902 18.7218 171.716 20.3602 171.716 23.5999C171.679 28.5525 172.275 30.9729 174.546 34.9573C176.185 37.9363 180.467 41.958 183.371 43.373C187.579 45.3839 189.18 45.7562 193.612 45.7562C196.442 45.7562 198.304 45.57 199.57 45.1604C207.166 42.6283 211.895 37.9736 214.874 30.1165C215.88 27.4354 215.768 20.2113 214.688 17.0461L213.832 14.5512L214.651 12.7638C215.582 10.6412 216.029 5.42798 215.507 2.18832C215.247 0.512627 215.061 0.140251 214.465 0.140251C213.943 0.140251 213.608 0.587105 213.273 1.85318C212.64 4.01295 210.108 7.02919 208.916 7.02919C208.432 7.02919 207.39 6.50787 206.608 5.87483C202.66 2.74688 196.181 1.03395 191.005 1.81594C186.574 2.44898 184.34 3.34268 180.169 6.17273C179.201 6.84301 178.27 7.40157 178.121 7.40157C177.264 7.40157 174.509 3.97572 173.839 2.15108C172.721 -0.976871 172.051 -0.716209 171.455 3.08202ZM203.107 19.8761C203.107 20.1368 202.847 20.6581 202.512 20.9933C201.953 21.5146 201.953 21.7008 202.549 22.8924C203.107 24.084 203.107 24.3074 202.586 25.0522C201.171 27.2119 197.894 25.8341 198.564 23.3392C198.788 22.4455 202.363 18.908 202.772 19.1686C202.958 19.2803 203.107 19.5782 203.107 19.8761ZM186.723 20.8816C189.106 23.2648 189.367 24.7543 187.654 25.8714C186.983 26.3182 186.611 26.3182 185.866 25.9831C184.489 25.3501 184.079 24.1585 184.749 22.7434C185.271 21.7008 185.271 21.5146 184.712 20.9933C184.079 20.323 183.967 19.9506 184.377 19.5782C184.824 19.1314 185.122 19.2803 186.723 20.8816ZM185.159 27.2119C185.345 27.6588 187.244 28.627 189.516 29.4462C191.862 30.3027 195.883 30.3399 197.782 29.5207C200.128 28.5152 201.394 27.8077 201.804 27.3236C202.363 26.6534 203.74 26.3182 204.038 26.7651C204.448 27.3981 202.958 28.7759 200.389 30.1909C198.117 31.3825 197.969 31.4198 193.612 31.4198C189.255 31.4198 189.106 31.3825 186.909 30.1537C184.265 28.6642 182.813 27.3609 183.185 26.8023C183.446 26.3182 184.973 26.6534 185.159 27.2119Z" fill="url(#paint0_linear_150_38)"/>
<path d="M101.933 7.25264C101.263 7.58778 100.332 8.48148 99.8849 9.22623C99.0284 10.5295 99.0284 10.8274 98.9167 23.7116C98.8423 30.9729 98.8795 37.3033 98.9912 37.7874C99.2146 38.6066 99.4008 38.7184 100.816 38.6066L102.38 38.4949L102.492 34.436C102.529 32.1645 102.789 30.1165 103.013 29.8558C103.609 29.1483 105.322 29.26 106.066 30.0792C106.588 30.6378 106.699 31.457 106.625 34.3988C106.588 36.3724 106.737 38.1598 106.923 38.346C107.146 38.5694 107.965 38.6811 108.747 38.6066L110.2 38.4949L110.311 25.3873C110.386 12.95 110.349 12.2052 109.641 10.2316C109.083 8.74214 108.524 7.96015 107.63 7.40159C106.141 6.50789 103.609 6.43341 101.933 7.25264ZM105.992 11.0136C106.588 12.5031 106.848 24.5681 106.327 25.6107C105.992 26.2065 105.545 26.3927 104.428 26.3927C103.199 26.3927 102.901 26.2438 102.715 25.499C102.305 23.8233 102.715 11.7584 103.236 10.8274C103.944 9.63584 105.433 9.71032 105.992 11.0136Z" fill="url(#paint1_linear_150_38)"/>
<path d="M133.101 7.47603C130.941 8.96553 130.718 10.0827 130.569 21.8497C130.457 31.7177 130.494 32.5741 131.202 34.9573C131.835 37.0426 132.207 37.6384 133.25 38.2715C135.447 39.6493 138.537 39.0535 139.952 36.9682C140.548 36.1117 141.219 33.1327 141.367 30.8612L141.479 29.1855L140.064 29.0738C139.282 28.9993 138.426 29.1483 138.165 29.3345C137.904 29.5579 137.569 30.7867 137.458 32.0156C137.197 34.8084 136.564 35.4787 135.112 34.436C134.441 33.9147 134.404 33.2816 134.292 23.4882C134.181 11.8701 134.367 10.0082 135.894 10.0082C137.011 10.0082 137.16 10.3061 137.458 12.5403C137.681 14.6629 138.537 15.4076 140.213 15.0352C141.107 14.8118 141.293 14.5884 141.293 13.6575C141.293 11.386 140.176 8.55592 138.91 7.58774C137.309 6.35891 134.814 6.32167 133.101 7.47603Z" fill="url(#paint2_linear_150_38)"/>
<path d="M298.249 7.28982C296.462 8.25799 295.903 9.26341 295.456 12.5031C295.121 14.8118 295.121 16.0034 295.456 17.6418C296.052 20.4347 296.797 21.6263 299.143 23.3764C302.085 25.5734 302.606 26.4299 302.829 29.3717C303.127 33.7285 302.42 35.4414 300.558 34.7339C299.776 34.436 299.478 33.654 299.217 31.2335L298.994 29.1855L297.579 29.0738C295.345 28.8876 295.121 29.26 295.643 32.6113C295.866 34.2125 296.35 36.0372 296.685 36.6702C297.877 38.9417 301.303 39.6865 304.058 38.2714C306.292 37.1543 307 35.3669 307 30.5633C307 25.5362 306.404 24.1957 303.09 21.589C299.739 18.9452 299.18 17.9398 299.18 14.4767C299.18 11.1625 299.813 9.89644 301.34 10.0826C302.234 10.1943 302.383 10.4178 302.718 12.3541C303.127 14.6256 303.611 15.2214 305.175 15.2214C306.628 15.2214 307.112 14.4394 306.814 12.5403C306.218 8.77932 304.133 6.65678 301.079 6.65678C300.148 6.69402 298.882 6.95468 298.249 7.28982Z" fill="url(#paint3_linear_150_38)"/>
<path d="M37.4748 7.47604C36.8417 8.10908 36.8417 37.6012 37.4748 38.2342C37.8472 38.6066 40.6027 38.9045 40.8262 38.5694C40.8634 38.5321 40.9751 35.5531 41.0868 31.9783L41.3102 25.4618L42.4274 25.3501C43.9169 25.1639 44.4754 24.6425 44.4754 23.3765C44.4754 22.2966 44.2892 22.1849 42.055 21.8497C41.3475 21.738 41.3102 21.4401 41.3102 15.9662V10.1944L43.2838 10.0827C45.4808 9.97095 45.9649 9.44963 45.2947 7.92289C44.885 7.06642 44.6989 7.02919 41.3847 7.02919C39.1877 7.02919 37.7727 7.17814 37.4748 7.47604Z" fill="url(#paint4_linear_150_38)"/>
<path d="M48.3853 7.36429C48.2736 7.58771 48.1992 14.5511 48.1992 22.8551C48.1992 31.1591 48.2736 38.1225 48.3853 38.3459C48.7205 38.83 51.3271 38.7555 51.8484 38.2342C52.1463 37.9363 52.2953 35.7393 52.2953 30.7867C52.2953 24.6053 52.3698 23.7488 52.9283 23.5254C53.2635 23.4137 53.971 23.5254 54.4923 23.8233C55.3115 24.2701 55.535 24.7914 55.9073 26.9512C56.1308 28.4035 56.4287 31.4942 56.5776 33.8402C56.7266 36.1861 56.9127 38.2342 57.0245 38.3831C57.3224 38.9417 60.0407 38.7183 60.2641 38.1225C60.6365 37.1543 59.8173 27.0629 59.1842 24.4563C58.5884 22.1103 58.5884 21.8497 59.1842 20.025C60.0035 17.6418 60.1152 12.652 59.4077 10.604C58.8119 8.85379 57.9926 8.03456 56.3914 7.476C54.9019 6.95467 48.7205 6.8802 48.3853 7.36429ZM55.3115 10.7901C56.019 11.4977 56.0563 11.9073 55.9446 15.5938C55.9073 17.828 55.7211 19.7644 55.5722 19.9133C55.4232 20.025 54.6785 20.174 53.8965 20.2112L52.4815 20.2485L52.3698 15.631C52.3325 13.0616 52.3698 10.7529 52.4442 10.4922C52.7421 9.74749 54.4551 9.93368 55.3115 10.7901Z" fill="url(#paint5_linear_150_38)"/>
<path d="M64.0996 7.28985C63.9506 7.40157 63.8389 14.3277 63.8389 22.669C63.8389 33.9147 63.9506 37.8991 64.2858 38.2342C64.5837 38.5321 66.0732 38.6811 68.5681 38.6811C72.2918 38.6811 72.4036 38.6439 72.627 37.7874C72.7387 37.3033 72.7759 36.4096 72.7015 35.851C72.5897 34.8084 72.5153 34.7712 70.2438 34.6594L67.8978 34.5477L68.0095 29.0738L68.1212 23.5999L70.0948 23.4882L72.0684 23.3765L71.9567 21.9987C71.845 20.6209 71.8078 20.6209 69.9831 20.4347L68.1212 20.2485V15.2214V10.1944L70.281 10.0827C72.627 9.97096 73.0366 9.59858 72.627 7.96013C72.4036 7.02919 72.3291 7.02919 68.3447 7.02919C66.1477 7.02919 64.2113 7.14091 64.0996 7.28985Z" fill="url(#paint6_linear_150_38)"/>
<path d="M75.8294 22.7434L75.9411 38.4949L80.1117 38.6066C84.2823 38.7183 84.3196 38.6811 84.543 37.8246C84.6547 37.3033 84.6919 36.4096 84.6175 35.851C84.5058 34.8084 84.4685 34.7711 81.9736 34.6594L79.4415 34.5477L79.5532 29.0738L79.6649 23.5999L81.5268 23.4882C83.5748 23.3392 84.0217 22.9296 83.6865 21.5518C83.4259 20.5464 82.8673 19.9878 82.346 20.323C82.197 20.4347 81.4523 20.3975 80.7448 20.2857L79.4787 20.0251V15.2587C79.4787 9.85923 79.367 10.0082 82.4949 10.0082C84.5058 10.0082 84.9526 9.56133 84.543 7.96012C84.3196 7.02918 84.2823 7.02918 80.0373 7.02918H75.7549L75.8294 22.7434Z" fill="url(#paint7_linear_150_38)"/>
<path d="M87.5592 7.28985C87.4103 7.40157 87.2986 14.3277 87.2986 22.669C87.2986 33.9147 87.4103 37.8991 87.7454 38.2342C88.0433 38.5321 89.5328 38.6811 92.0278 38.6811C96.1611 38.6811 96.608 38.4577 96.608 36.3724C96.608 34.9946 95.9005 34.585 93.5545 34.585H91.3947V21.4029C91.3947 14.1416 91.283 7.96013 91.1713 7.62499C91.0223 7.21538 90.4638 7.02919 89.3839 7.02919C88.4902 7.02919 87.671 7.14091 87.5592 7.28985Z" fill="url(#paint8_linear_150_38)"/>
<path d="M114.743 7.28985C114.37 7.62499 114.445 37.6757 114.817 38.2342C115.003 38.5321 115.674 38.6811 116.567 38.6066L118.02 38.4949L118.206 30.9729C118.392 23.7488 118.653 21.738 119.137 24.0095C119.286 24.6053 119.584 25.7597 119.844 26.5789C120.105 27.3981 120.626 29.0738 120.999 30.3026C121.334 31.5315 121.855 33.2072 122.153 34.0264C122.451 34.8829 122.674 35.8883 122.674 36.2979C122.674 37.6012 123.717 38.6811 125.057 38.6811C125.69 38.6811 126.435 38.4949 126.696 38.2342C127.217 37.7129 127.329 8.29527 126.808 7.47604C126.621 7.14091 125.914 7.02919 124.871 7.10367L123.233 7.21538L123.047 14.7374C122.935 18.8707 122.711 22.3711 122.563 22.52C122.19 22.8924 121.557 21.9614 121.557 21.0305C121.557 20.6209 121.296 19.3921 120.961 18.2377C120.626 17.0833 120.142 15.2959 119.881 14.2905C119.584 13.2479 119.025 11.1998 118.578 9.71029L117.759 7.02919H116.381C115.599 7.02919 114.854 7.14091 114.743 7.28985Z" fill="url(#paint9_linear_150_38)"/>
<path d="M144.458 7.51325C144.346 7.73668 144.309 14.849 144.346 23.2275L144.458 38.4949L148.331 38.6066C152.837 38.7183 153.283 38.4949 153.135 36.2979L153.023 34.7711L150.677 34.6594L148.331 34.5477L148.443 29.0738L148.554 23.5999L150.416 23.4137C152.278 23.2275 152.278 23.2275 152.278 21.9242C152.278 20.7326 152.166 20.6209 151.161 20.5091C148.145 20.2485 148.331 20.6209 148.443 15.1097L148.554 10.1944L150.714 10.0826C153.06 9.97093 153.47 9.59855 153.06 7.9601C152.837 7.02916 152.799 7.02916 148.703 7.02916C145.799 7.02916 144.57 7.17811 144.458 7.51325Z" fill="url(#paint10_linear_150_38)"/>
<path d="M234.089 7.47604C233.456 8.10908 233.456 37.6012 234.089 38.2342C234.461 38.6066 237.217 38.9045 237.44 38.5694C237.478 38.5321 237.589 35.5531 237.701 31.9783L237.924 25.4618L239.042 25.3501C240.531 25.1639 241.09 24.6425 241.09 23.3765C241.09 22.2966 240.903 22.1849 238.669 21.8497C237.962 21.738 237.924 21.4401 237.924 15.9662V10.1944L239.898 10.0827C242.095 9.97095 242.579 9.44963 241.909 7.92289C241.499 7.06642 241.313 7.02919 237.999 7.02919C235.802 7.02919 234.387 7.17814 234.089 7.47604Z" fill="url(#paint11_linear_150_38)"/>
<path d="M244.664 7.58779C244.553 7.92293 244.441 14.8491 244.441 23.0041C244.441 33.9892 244.553 37.8991 244.888 38.2343C245.409 38.7556 247.346 38.8301 248.09 38.3832C248.463 38.1226 248.537 34.7339 248.463 22.6318L248.351 7.21541L246.638 7.1037C245.297 7.02922 244.851 7.14094 244.664 7.58779Z" fill="url(#paint12_linear_150_38)"/>
<path d="M252.484 7.62499C252.373 7.96013 252.261 14.8491 252.261 23.0041C252.261 33.9892 252.373 37.8991 252.708 38.2342C253.006 38.5321 254.495 38.6811 256.953 38.6811C261.272 38.6811 261.682 38.4577 261.496 36.1862L261.384 34.7712L258.964 34.585L256.543 34.3988L256.431 29.4089C256.357 26.1693 256.469 24.2702 256.729 23.935C256.99 23.6744 257.958 23.4137 258.889 23.3392C260.602 23.2275 260.639 23.2275 260.639 21.9242C260.639 20.6581 260.602 20.6209 258.964 20.5092C258.07 20.4347 257.102 20.2113 256.841 19.9879C256.171 19.4665 256.171 11.0881 256.804 10.455C257.064 10.1944 258.144 10.0082 259.224 10.0082C261.421 10.0082 261.831 9.59858 261.421 7.96013C261.198 7.02919 261.161 7.02919 256.953 7.02919C253.415 7.02919 252.67 7.14091 252.484 7.62499Z" fill="url(#paint13_linear_150_38)"/>
<path d="M264.4 7.84842C264.028 9.37516 264.14 37.1916 264.549 37.9736C264.81 38.4577 265.331 38.6811 266.225 38.6811C268.236 38.6811 268.422 37.9736 268.161 30.8612C267.901 23.5999 268.124 22.4828 269.241 25.3501C269.688 26.4299 270.321 28.3291 270.656 29.5579C272.071 34.7339 272.481 35.9628 273.077 37.1916C273.598 38.346 273.821 38.4949 275.162 38.4949H276.651V22.8551V7.21538L275.162 7.10367C272.853 6.91748 272.741 7.25262 272.741 15.4821C272.741 21.6263 272.667 22.6317 272.183 22.4455C271.885 22.3338 271.55 21.6263 271.401 20.8816C271.289 20.0996 270.954 18.759 270.693 17.8281C270.433 16.8971 269.949 15.0725 269.576 13.7319C269.204 12.3914 268.645 10.3806 268.31 9.26345C267.677 7.25262 267.64 7.21538 266.15 7.10367C264.847 6.99196 264.624 7.10367 264.4 7.84842Z" fill="url(#paint14_linear_150_38)"/>
<path d="M281.12 7.51329C281.008 7.73672 280.971 14.8491 281.008 23.2275L281.12 38.4949L283.54 38.6066C288.977 38.8673 290.839 37.8991 291.882 34.2871C292.366 32.5369 292.477 30.3027 292.477 22.6317C292.477 10.6412 292.068 8.85384 289.014 7.47605C287.599 6.88025 281.343 6.88025 281.12 7.51329ZM287.264 10.3806C288.53 11.0509 288.754 12.801 288.754 22.5573C288.754 33.803 288.567 34.6967 286.259 34.5105L284.844 34.3988L284.732 22.52C284.658 10.2689 284.658 10.0454 286.073 10.0082C286.333 10.0082 286.892 10.1572 287.264 10.3806Z" fill="url(#paint15_linear_150_38)"/>
<path d="M26 8L13 22.5L26 37" stroke="url(#paint16_linear_150_38)" stroke-width="3"/>
<path d="M335 38L348 23.5L335 9" stroke="url(#paint17_linear_150_38)" stroke-width="3"/>
<line x1="329.414" y1="7.50161" x2="318.414" y2="38.5016" stroke="url(#paint18_linear_150_38)" stroke-width="3"/>
<defs>
<linearGradient id="paint0_linear_150_38" x1="193.438" y1="45.7562" x2="193.438" y2="0" gradientUnits="userSpaceOnUse">
<stop stop-color="#A05CE3"/>
<stop offset="1" stop-color="#5709A7"/>
</linearGradient>
<linearGradient id="paint1_linear_150_38" x1="104.608" y1="38.643" x2="104.608" y2="6.68204" gradientUnits="userSpaceOnUse">
<stop stop-color="#A05CE3"/>
<stop offset="1" stop-color="#5709A7"/>
</linearGradient>
<linearGradient id="paint2_linear_150_38" x1="136" y1="39.0149" x2="136" y2="6.63731" gradientUnits="userSpaceOnUse">
<stop stop-color="#A05CE3"/>
<stop offset="1" stop-color="#5709A7"/>
</linearGradient>
<linearGradient id="paint3_linear_150_38" x1="301.102" y1="38.9908" x2="301.102" y2="6.65678" gradientUnits="userSpaceOnUse">
<stop stop-color="#A05CE3"/>
<stop offset="1" stop-color="#5709A7"/>
</linearGradient>
<linearGradient id="paint4_linear_150_38" x1="41.2871" y1="38.7152" x2="41.2871" y2="7.02919" gradientUnits="userSpaceOnUse">
<stop stop-color="#A05CE3"/>
<stop offset="1" stop-color="#5709A7"/>
</linearGradient>
<linearGradient id="paint5_linear_150_38" x1="54.2783" y1="38.7043" x2="54.2783" y2="7.03989" gradientUnits="userSpaceOnUse">
<stop stop-color="#A05CE3"/>
<stop offset="1" stop-color="#5709A7"/>
</linearGradient>
<linearGradient id="paint6_linear_150_38" x1="68.3027" y1="38.6811" x2="68.3027" y2="7.02919" gradientUnits="userSpaceOnUse">
<stop stop-color="#A05CE3"/>
<stop offset="1" stop-color="#5709A7"/>
</linearGradient>
<linearGradient id="paint7_linear_150_38" x1="80.2182" y1="38.652" x2="80.2182" y2="7.02918" gradientUnits="userSpaceOnUse">
<stop stop-color="#A05CE3"/>
<stop offset="1" stop-color="#5709A7"/>
</linearGradient>
<linearGradient id="paint8_linear_150_38" x1="91.9533" y1="38.6811" x2="91.9533" y2="7.02919" gradientUnits="userSpaceOnUse">
<stop stop-color="#A05CE3"/>
<stop offset="1" stop-color="#5709A7"/>
</linearGradient>
<linearGradient id="paint9_linear_150_38" x1="120.823" y1="38.6811" x2="120.823" y2="7.02919" gradientUnits="userSpaceOnUse">
<stop stop-color="#A05CE3"/>
<stop offset="1" stop-color="#5709A7"/>
</linearGradient>
<linearGradient id="paint10_linear_150_38" x1="148.766" y1="38.6296" x2="148.766" y2="7.02917" gradientUnits="userSpaceOnUse">
<stop stop-color="#A05CE3"/>
<stop offset="1" stop-color="#5709A7"/>
</linearGradient>
<linearGradient id="paint11_linear_150_38" x1="237.901" y1="38.7152" x2="237.901" y2="7.02919" gradientUnits="userSpaceOnUse">
<stop stop-color="#A05CE3"/>
<stop offset="1" stop-color="#5709A7"/>
</linearGradient>
<linearGradient id="paint12_linear_150_38" x1="246.465" y1="38.6766" x2="246.465" y2="7.08243" gradientUnits="userSpaceOnUse">
<stop stop-color="#A05CE3"/>
<stop offset="1" stop-color="#5709A7"/>
</linearGradient>
<linearGradient id="paint13_linear_150_38" x1="256.912" y1="38.6811" x2="256.912" y2="7.02919" gradientUnits="userSpaceOnUse">
<stop stop-color="#A05CE3"/>
<stop offset="1" stop-color="#5709A7"/>
</linearGradient>
<linearGradient id="paint14_linear_150_38" x1="270.412" y1="38.6811" x2="270.412" y2="7.06664" gradientUnits="userSpaceOnUse">
<stop stop-color="#A05CE3"/>
<stop offset="1" stop-color="#5709A7"/>
</linearGradient>
<linearGradient id="paint15_linear_150_38" x1="286.736" y1="38.6465" x2="286.736" y2="7.03375" gradientUnits="userSpaceOnUse">
<stop stop-color="#A05CE3"/>
<stop offset="1" stop-color="#5709A7"/>
</linearGradient>
<linearGradient id="paint16_linear_150_38" x1="19.5" y1="8" x2="19.5" y2="37" gradientUnits="userSpaceOnUse">
<stop stop-color="#34015B"/>
<stop offset="1" stop-color="#5A01B3"/>
</linearGradient>
<linearGradient id="paint17_linear_150_38" x1="341.5" y1="38" x2="341.5" y2="9" gradientUnits="userSpaceOnUse">
<stop stop-color="#5A01B3"/>
<stop offset="1" stop-color="#34015B"/>
</linearGradient>
<linearGradient id="paint18_linear_150_38" x1="319.048" y1="37.7509" x2="327.985" y2="6.99568" gradientUnits="userSpaceOnUse">
<stop stop-color="#5A01B3"/>
<stop offset="1" stop-color="#34015B"/>
</linearGradient>
</defs>
</svg>
